<svg xmlns="http://www.w3.org/2000/svg" viewBox="0 0 140 160" fill="none" aria-hidden="true">
  <!-- Mediterranean amphora -->
  <path d="M50 36c0-10 12-16 20-16s20 6 20 16" stroke="currentColor" stroke-width="1.3" opacity="0.7"/>
  <ellipse cx="70" cy="36" rx="22" ry="6" fill="currentColor" opacity="0.3"/>
  <!-- Neck -->
  <path d="M58 36v16h24V36" stroke="currentColor" stroke-width="1.2" opacity="0.6"/>
  <!-- Handles -->
  <path d="M50 48c-16 4-22 18-18 34 4 2 8 2 10 0-2-12 2-22 10-28Z" stroke="currentColor" stroke-width="1.3" opacity="0.55" fill="none"/>
  <path d="M90 48c16 4 22 18 18 34-4 2-8 2-10 0 2-12-2-22-10-28Z" stroke="currentColor" stroke-width="1.3" opacity="0.55" fill="none"/>
  <!-- Body -->
  <path d="M54 52c-12 16-16 40-10 64 4 16 18 28 26 28s22-12 26-28c6-24 2-48-10-64Z" fill="currentColor" opacity="0.5"/>
  <path d="M62 60c-6 14-8 34-4 54" stroke="currentColor" stroke-width="1" opacity="0.25"/>
  <path d="M78 60c6 14 8 34 4 54" stroke="currentColor" stroke-width="1" opacity="0.2"/>
  <!-- Band decoration -->
  <path d="M48 88h44" stroke="currentColor" stroke-width="1.2" opacity="0.4"/>
  <path d="M50 96h40" stroke="currentColor" stroke-width="0.9" opacity="0.3"/>
  <!-- Foot -->
  <path d="M60 144c2 6 6 8 10 8s8-2 10-8" stroke="currentColor" stroke-width="1.3" opacity="0.5"/>
  <ellipse cx="70" cy="148" rx="14" ry="4" fill="currentColor" opacity="0.3"/>
  <!-- Leaf at neck -->
  <path d="M70 28c-6-12 2-20 12-20-2 8 2 14 8 18-8 0-14 2-20 2Z" fill="currentColor" opacity="0.55"/>
</svg>
