<svg xmlns="http://www.w3.org/2000/svg" viewBox="0 0 160 160" fill="none" aria-hidden="true">
  <path d="M18 142c22-18 34-42 38-68 18 22 42 38 68 40-22 14-38 36-40 62-16-20-40-34-66-34Z" fill="currentColor" opacity="0.88"/>
  <path d="M42 118c12-8 20-22 22-38 10 14 24 24 40 26" stroke="currentColor" stroke-width="1.2" opacity="0.55"/>
  <path d="M28 132c8-28 26-48 52-58" stroke="currentColor" stroke-width="1.1" opacity="0.4"/>
  <path d="M72 72c8-18 22-30 40-36 4 16 14 28 28 34-12 10-20 24-22 40-14-8-28-20-46-38Z" fill="currentColor" opacity="0.55"/>
  <path d="M96 52c10-8 22-12 34-12" stroke="currentColor" stroke-width="1.1" opacity="0.45"/>
  <path d="M108 40c6-14 16-24 30-28 2 12 10 22 20 28-10 8-16 18-18 30-12-6-22-16-32-30Z" fill="currentColor" opacity="0.42"/>
  <circle cx="132" cy="22" r="3.2" fill="currentColor" opacity="0.5"/>
  <circle cx="118" cy="34" r="2.2" fill="currentColor" opacity="0.35"/>
  <path d="M54 96c-4 18-2 34 8 48" stroke="currentColor" stroke-width="1" opacity="0.3"/>
  <path d="M86 64c14 4 26 14 34 28" stroke="currentColor" stroke-width="1" opacity="0.28"/>
</svg>
