<svg xmlns="http://www.w3.org/2000/svg" viewBox="0 0 320 200" fill="none">
  <rect width="320" height="200" fill="#F3F5F0"/>
  <rect x="20" y="18" width="280" height="164" rx="2" stroke="#8FA386" stroke-width="1" fill="#E8EDE4"/>
  <path d="M36 34c10-3 16-10 16-18 6 8 14 14 24 14" fill="#4F6B4E" opacity="0.75"/>
  <path d="M268 166c-10 3-16 10-16 18-6-8-14-14-24-14" fill="#4F6B4E" opacity="0.75"/>
  <path d="M90 48c20-10 40-10 60 0s40 10 60 0 40-10 60 0" stroke="#8FA386" stroke-width="1" opacity="0.7"/>
  <text x="160" y="100" text-anchor="middle" fill="#2A352A" font-family="Georgia, serif" font-size="18">Alex &amp; Jordan</text>
  <rect x="130" y="112" width="60" height="1" fill="#8FA386"/>
  <text x="160" y="132" text-anchor="middle" fill="#5C6B5A" font-family="system-ui,sans-serif" font-size="8" letter-spacing="0.14em">GARDEN CEREMONY</text>
  <circle cx="160" cy="156" r="3" fill="#8FA386"/>
</svg>
