<svg xmlns="http://www.w3.org/2000/svg" viewBox="0 0 240 280" fill="none" aria-hidden="true">
  <!-- Outer botanical wreath; photo sits in the open center via CSS -->
  <ellipse cx="120" cy="132" rx="78" ry="96" stroke="currentColor" stroke-width="1.1" opacity="0.25"/>
  <path d="M48 70c18-28 46-44 72-44 26 0 54 16 72 44" stroke="currentColor" stroke-width="1.2" opacity="0.35"/>
  <path d="M42 200c20 28 48 44 78 44s58-16 78-44" stroke="currentColor" stroke-width="1.2" opacity="0.35"/>
  <path d="M52 56c10-8 18-8 26 0-4 10-12 16-22 16-2-6-2-12-4-16Z" fill="currentColor" opacity="0.7"/>
  <path d="M86 36c8-10 18-12 28-4-2 10-10 16-20 16-4-4-6-8-8-12Z" fill="currentColor" opacity="0.55"/>
  <path d="M126 30c8-8 20-8 28 2-6 8-14 12-24 10 0-4-2-8-4-12Z" fill="currentColor" opacity="0.65"/>
  <path d="M162 42c10-8 20-6 28 4-6 10-16 14-26 12 0-6-2-12-2-16Z" fill="currentColor" opacity="0.5"/>
  <path d="M188 66c10-4 18 0 22 10-8 8-16 10-26 6 2-6 2-12 4-16Z" fill="currentColor" opacity="0.6"/>
  <path d="M198 100c10 0 16 8 16 18-10 4-18 2-24-6 4-4 6-8 8-12Z" fill="currentColor" opacity="0.48"/>
  <path d="M196 150c8 4 12 12 10 22-10 0-18-6-22-14 6-2 10-6 12-8Z" fill="currentColor" opacity="0.58"/>
  <path d="M182 196c8 8 8 18 2 26-8-4-14-12-14-22 4-2 8-4 12-4Z" fill="currentColor" opacity="0.52"/>
  <path d="M152 228c6 10 2 20-8 26-4-8-4-18 0-26 2 0 6 0 8 0Z" fill="currentColor" opacity="0.62"/>
  <path d="M112 236c0 12-8 20-20 22 0-10 4-20 12-26 4 0 6 2 8 4Z" fill="currentColor" opacity="0.55"/>
  <path d="M72 220c-6 10-16 14-26 10 4-10 12-16 22-18 2 2 4 6 4 8Z" fill="currentColor" opacity="0.6"/>
  <path d="M48 184c-10 4-16-2-18-12 10-4 18 0 22 8-2 2-2 4-4 4Z" fill="currentColor" opacity="0.5"/>
  <path d="M42 140c-10 0-14-8-12-18 10 0 18 4 20 14-4 2-6 4-8 4Z" fill="currentColor" opacity="0.58"/>
  <path d="M46 98c-8-6-8-16 0-24 6 6 10 14 8 24-2 0-6 0-8 0Z" fill="currentColor" opacity="0.52"/>
  <circle cx="120" cy="28" r="3" fill="currentColor" opacity="0.45"/>
  <circle cx="204" cy="132" r="2.5" fill="currentColor" opacity="0.35"/>
  <circle cx="36" cy="132" r="2.5" fill="currentColor" opacity="0.35"/>
  <circle cx="120" cy="248" r="3" fill="currentColor" opacity="0.4"/>
  <!-- Small buds -->
  <circle cx="70" cy="48" r="2" fill="currentColor" opacity="0.4"/>
  <circle cx="170" cy="48" r="2" fill="currentColor" opacity="0.4"/>
  <circle cx="70" cy="216" r="2" fill="currentColor" opacity="0.35"/>
  <circle cx="170" cy="216" r="2" fill="currentColor" opacity="0.35"/>
</svg>
